# xmcd
#
# Track frame offsets:
#	150
#	17067
#	34277
#	48695
#	68089
#	84435
#	101677
#	116866
#	131276
#	146573
#	163191
#	176194
#	193751
#	215210
#	229311
#	245776
#	261101
#	261842
#	262464
#	263078
#	264006
#	264663
#	265314
#	265991
#	266656
#	267310
#	268301
#	269100
#	269780
#	270467
#
# Disc length: 3612 seconds
#
# Revision: 1
# Processed by: cddbd v1.5.2PL0 Copyright (c) Steve Scherf et al.
# Submitted via: audiograbber 1.83.01
#
DISCID=fb0e1a1e
DTITLE=Various Artist - CDX Volume 574 (July 8, 2013)
DYEAR=2013
DGENRE=Country
TTITLE0=Miranda Lambert - All Kinds Of Kinds [Single Edit]
TTITLE1=George Strait - I Believe
TTITLE2=Darius Rucker - Radio [Remix]
TTITLE3=Kenny Chesney - When I See This Bar [Single Edit]
TTITLE4=Gretchen Wilson - Crazy
TTITLE5=Ronnie Dunn - Kiss You There
TTITLE6=Craig Morgan - Wake Up Lovin' You
TTITLE7=Tony Stampley - When I Get On A Roll
TTITLE8=Callie Bobsin - Back Then
TTITLE9=Steve Free - Do You Wanna Dance
TTITLE10=Tobi Gordon - Grandma's Love Recipe
TTITLE11=Petrella - One
TTITLE12=Rachelle Lamb - Real Men Wear Boots
TTITLE13=Kayla Taylor - See You In Summer
TTITLE14=Amy Allen - Someday Is Today
TTITLE15=Betty Swain Project (featuring Lynn Anderson) - Sweet Memories
TTITLE16=Mike Aiken - Greatest Hits of All Time [Radio Liner]
TTITLE17=Mike Aiken - Home Town Country [Radio Liner]
TTITLE18=Mike Aiken - Kickin' Country [Radio Liner]
TTITLE19=Mike Aiken - My New Single [Radio Liner]
TTITLE20=Mike Aiken - The Best In Country Music [Radio Liner]
TTITLE21=Mike Aiken - Today's Best Country [Radio Liner]
TTITLE22=Mike Aiken - Today's Hot Country Music [Radio Liner]
TTITLE23=Hannah Bethel - Home Town Country [Radio Liner]
TTITLE24=Hannah Bethel - Kickin' Country [Radio Liner]
TTITLE25=Hannah Bethel - My New Single [Radio Liner]
TTITLE26=Hannah Bethel - Super Country [Radio Liner]
TTITLE27=Hannah Bethel - The Best In Country [Radio Liner]
TTITLE28=Hannah Bethel - Today's Best Country [Radio Liner]
TTITLE29=Hannah Bethel - Today's Hot Country [Radio Liner]
EXTD=
EXTT0=
EXTT1=
EXTT2=
EXTT3=
EXTT4=
EXTT5=
EXTT6=
EXTT7=
EXTT8=
EXTT9=
EXTT10=
EXTT11=
EXTT12=
EXTT13=
EXTT14=
EXTT15=
EXTT16=
EXTT17=
EXTT18=
EXTT19=
EXTT20=
EXTT21=
EXTT22=
EXTT23=
EXTT24=
EXTT25=
EXTT26=
EXTT27=
EXTT28=
EXTT29=
PLAYORDER=
